<svg xmlns="http://www.w3.org/2000/svg" width="692.45" height="160.31" viewBox="0 0 692.45 160.31">
  <path d="M96.29,0h15L144.2,42.47V0h14.7V66.26h-15l-33-42.9v42.9H96.29Z" fill="#cf0"/>
  <path d="M162.85,44.08c0-13.67,9.86-23.35,23.87-23.35s24,9.68,24,23.35-9.94,23.53-24,23.53S162.85,57.85,162.85,44.08Zm33.9,0c0-6.62-4.08-11.38-10-11.38-5.77,0-9.94,4.76-9.94,11.38s4.17,11.56,9.94,11.56C192.67,55.64,196.75,50.8,196.75,44.08Z" fill="#cf0"/>
  <path d="M220.19,54.36V34.83h-9.43V22.09h9.43V10.19h13.93v11.9h11.13V34.83H234.12V46.89c0,7.22.34,7.81,9.52,7V66.17C226.65,67.36,219.94,66.85,220.19,54.36Z" fill="#cf0"/>
  <path d="M267.15,52H281c.26,3.91,3.83,6.21,8.5,6.21,4.33,0,6.8-2.3,6.8-4.51,0-8.24-28,.68-28-18.17,0-9.18,8-14.78,21.41-14.78,12.23,0,19.88,5.94,20.64,15.88H296.37c-.17-4.08-3-6.45-7.39-6.45-4.25,0-6.8,1.86-6.8,4.67,0,7.9,28.12-1,28.12,18.34,0,9-7.9,14.44-21.15,14.44C275.64,67.61,267.4,61.75,267.15,52Z" fill="#cf0"/>
  <path d="M311.65,44.08c0-13.67,9.85-23.35,23.87-23.35s24,9.68,24,23.35-9.94,23.53-24,23.53S311.65,57.85,311.65,44.08Zm33.89,0c0-6.62-4.07-11.38-10-11.38-5.78,0-9.94,4.76-9.94,11.38s4.16,11.56,9.94,11.56C341.47,55.64,345.54,50.8,345.54,44.08Z" fill="#cf0"/>
  <path d="M361.76,22.09H375.6v8.23c2.81-5.86,8.58-8.75,17.25-8.75V35.08c-8.5,0-17.25-.34-17.25,7.65V66.26H361.76Z" fill="#cf0"/>
  <path d="M394.82,22.09h13.84v8.23c2.81-5.86,8.58-8.75,17.25-8.75V35.08c-8.5,0-17.25-.34-17.25,7.65V66.26H394.82Z" fill="#cf0"/>
  <path d="M431.72,70.93h3.9c5.35.08,8.24-.85,10.79-4.25l-19.2-44.59h14.61l11.9,27.69,10.44-27.69h14.53l-18,47.39c-4.59,11-12.4,13.76-23.27,13.76h-5.69Z" fill="#cf0"/>
  <path d="M500.53,54.36V34.83H491.1V22.09h9.43V10.19h13.93v11.9h11.12V34.83H514.46V46.89c0,7.22.34,7.81,9.51,7V66.17C507,67.36,500.27,66.85,500.53,54.36Z" fill="#cf0"/>
  <path d="M525.83,44.08c0-13.67,9.86-23.35,23.87-23.35s24,9.68,24,23.35-9.94,23.53-24,23.53S525.83,57.85,525.83,44.08Zm33.9,0c0-6.62-4.08-11.38-10-11.38-5.77,0-9.94,4.76-9.94,11.38s4.17,11.56,9.94,11.56C555.65,55.64,559.73,50.8,559.73,44.08Z" fill="#cf0"/>
  <path d="M13.93,138v5.35H0V76.21H13.93V104.5c3-4.16,7.82-6.71,14.87-6.71,11,0,18.77,9.68,18.77,23.27,0,13.85-7.73,23.62-18.77,23.62C21.75,144.68,16.91,142.21,13.93,138Zm19.71-16.82c0-6.63-4.08-11.38-9.85-11.38s-9.86,4.75-9.86,11.38S18,132.7,23.79,132.7,33.64,127.86,33.64,121.15Z" fill="#cf0"/>
  <path d="M95.3,143.32H81.36v-5.95c-3,4.5-7.72,7.31-14.77,7.31-11.05,0-16.48-7.14-16.48-21.07V99.15H64.29v23.78c0,6.12,3.06,9.77,8.24,9.77,5.44,0,8.83-4.16,8.83-10.62V99.15H95.3Z" fill="#cf0"/>
  <path d="M100,99.15h13.85v8.24c2.8-5.86,8.58-8.75,17.24-8.75v13.5c-8.49,0-17.24-.34-17.24,7.65v23.53H100Z" fill="#cf0"/>
  <path d="M132.39,129.05h13.85c.25,3.91,3.82,6.2,8.49,6.2,4.33,0,6.8-2.29,6.8-4.5,0-8.24-28,.68-28-18.18,0-9.18,8-14.78,21.4-14.78,12.23,0,19.88,5.94,20.64,15.88H161.61c-.17-4.07-3-6.45-7.39-6.45-4.25,0-6.79,1.87-6.79,4.67,0,7.9,28.11-1,28.11,18.35,0,9-7.9,14.44-21.15,14.44C140.89,144.68,132.65,138.82,132.39,129.05Z" fill="#cf0"/>
  <path d="M186.36,131.43V111.89h-9.42V99.15h9.42V87.26h13.93V99.15h11.13v12.74H200.29V124c0,7.22.34,7.82,9.52,7v12.23C192.82,144.42,186.11,143.91,186.36,131.43Z" fill="#cf0"/>
  <path d="M235.88,148h3.9c5.35.09,8.24-.85,10.79-4.25l-19.2-44.59H246l11.9,27.69,10.44-27.69h14.53l-18,47.4c-4.59,10.95-12.4,13.76-23.27,13.76h-5.69Z" fill="#cf0"/>
  <path d="M280,121.15c0-13.68,9.85-23.36,23.87-23.36s24,9.68,24,23.36-9.94,23.53-24,23.53S280,134.91,280,121.15Zm33.89,0c0-6.63-4.08-11.38-10-11.38-5.78,0-9.94,4.75-9.94,11.38s4.16,11.55,9.94,11.55C309.85,132.7,313.93,127.86,313.93,121.15Z" fill="#cf0"/>
  <path d="M375.67,143.32H361.74v-5.95c-3,4.5-7.73,7.31-14.78,7.31-11,0-16.48-7.14-16.48-21.07V99.15h14.19v23.78c0,6.12,3.06,9.77,8.24,9.77,5.44,0,8.83-4.16,8.83-10.62V99.15h13.93Z" fill="#cf0"/>
  <path d="M380.42,99.15h13.85v8.24c2.8-5.86,8.58-8.75,17.24-8.75v13.5c-8.49,0-17.24-.34-17.24,7.65v23.53H380.42Z" fill="#cf0"/>
  <path d="M445.65,138v5.35H431.72V76.21h13.93V104.5c3-4.16,7.81-6.71,14.86-6.71,11,0,18.77,9.68,18.77,23.27,0,13.85-7.73,23.62-18.77,23.62C453.46,144.68,448.62,142.21,445.65,138Zm19.7-16.82c0-6.63-4.07-11.38-9.85-11.38s-9.85,4.75-9.85,11.38,4.08,11.55,9.85,11.55S465.35,127.86,465.35,121.15Z" fill="#cf0"/>
  <path d="M527,143.32H513.08v-5.95c-3,4.5-7.73,7.31-14.78,7.31-11,0-16.48-7.14-16.48-21.07V99.15H496v23.78c0,6.12,3.06,9.77,8.24,9.77,5.43,0,8.83-4.16,8.83-10.62V99.15H527Z" fill="#cf0"/>
  <path d="M545.69,138v5.35H531.76V76.21h13.93V104.5c3-4.16,7.82-6.71,14.87-6.71,11,0,18.77,9.68,18.77,23.27,0,13.85-7.73,23.62-18.77,23.62C553.51,144.68,548.66,142.21,545.69,138Zm19.71-16.82c0-6.63-4.08-11.38-9.85-11.38s-9.86,4.75-9.86,11.38,4.08,11.55,9.86,11.55S565.4,127.86,565.4,121.15Z" fill="#cf0"/>
  <path d="M595.46,138v5.35H581.53V76.21h13.93V104.5c3-4.16,7.81-6.71,14.86-6.71,11,0,18.78,9.68,18.78,23.27,0,13.85-7.73,23.62-18.78,23.62C603.27,144.68,598.43,142.21,595.46,138Zm19.7-16.82c0-6.63-4.07-11.38-9.85-11.38s-9.85,4.75-9.85,11.38,4.08,11.55,9.85,11.55S615.16,127.86,615.16,121.15Z" fill="#cf0"/>
  <path d="M631.29,76.21h13.94v67.11H631.29Z" fill="#cf0"/>
  <path d="M648.28,121.15c0-13.68,9.51-23.36,23.19-23.36,12.14,0,21,9.34,21,23.27v4.25h-30c.59,4.93,3.14,8.07,9.17,8.07,3.82,0,6.37-1.95,6.79-4.84h13.93c-1.35,10-9.93,16.14-20.89,16.14C657.79,144.68,648.28,134.91,648.28,121.15Zm30.24-4.08c-.26-4-2.72-7.3-7.56-7.3-5.44,0-7.73,3-8.49,7.3Z" fill="#cf0"/>
</svg>